<svg width="907" height="482" viewBox="0 -200 907 482" fill="none" xmlns="http://www.w3.org/2000/svg">
  <g clip-path="url(#clip0)">
    <g opacity="0.33">
      <path d="M515.81 125.306C480.901 115.952 114.634 -124.292 13.4772 253.231C-47.9238 482.382 121.643 800.122 225.354 827.911C272.393 840.515 301.457 816.08 328.757 823.396C356.557 830.844 353.356 862.209 413.584 878.347C517.325 906.145 836.373 691.122 890.722 488.288C991.984 110.372 550.718 134.659 515.81 125.306Z" fill="#D04A06"/>
      <path d="M558.068 91.0253C653.422 -91.847 897.278 59.2707 897.278 59.2707C720.5 233.771 558.068 91.0253 558.068 91.0253Z" fill="#3C9989"/>
      <path d="M560.719 92.0956C560.719 92.0956 729.645 233.128 898.807 64.5235C898.807 64.5235 720.192 43.675 560.719 92.0956Z" fill="#36786C"/>
      <path d="M893.527 53.9345C709.03 21.7431 499.756 90.4209 511.613 103.06C527.722 120.264 629.305 39.0106 893.527 53.9345Z" fill="#94DED1"/>
      <path d="M510.167 196.869C483.06 148.024 535.068 5.59832 563.743 13.2817C611.235 26.0073 515.068 54.343 510.167 196.869Z" fill="#B47D56"/>
      <path d="M503.356 178.424C422.067 155.484 401.525 103.743 303.351 96.0075C402.624 122.608 409.717 185.396 494.625 211.009C580.964 231.281 617.562 180.2 717.774 207.052C628.915 164.672 585.229 199.186 503.356 178.424Z" fill="#B00505"/>
      <path d="M212.363 185.624C174.678 152.861 123.672 202.581 131.326 258.203C148.478 382.565 327.822 358.878 349.636 277.47C361.576 232.906 297.041 259.24 212.363 185.624V185.624Z" fill="#F27435"/>
      <path d="M331.134 785.455C112.988 727.003 40.9859 572.22 40.9859 572.22C87.9492 704.531 166.699 812.169 224.9 827.764C271.938 840.368 301.073 815.67 328.373 822.985C356.173 830.434 352.902 862.062 413.129 878.2C516.871 905.997 836.575 688.522 891.4 483.914C836.216 689.863 524.975 837.394 331.134 785.455Z" fill="#BB3F00"/>
    </g>
  </g>
  <defs>
    <clipPath id="clip0">
      <rect width="907" height="482" fill="white"/>
    </clipPath>
  </defs>
</svg>