<svg width="307" height="258" viewBox="0 0 307 258" fill="none" xmlns="http://www.w3.org/2000/svg">
  <path d="M146.351 208.266C146.351 224.616 121.037 235.772 93.6914 235.772C66.3457 235.772 44.1831 224.616 44.1831 208.266C44.1831 189.239 66.3457 183.427 93.6914 183.427C121.037 183.427 146.351 189.565 146.351 208.266Z" fill="#BEC3CF"/>
  <path d="M95.2672 31.4364H16.6763C16.6763 31.4364 16.6763 127.71 44.1831 200.407C48.2148 211.712 57.575 227.914 95.2672 227.914C132.975 227.914 142.327 211.708 146.351 200.407C173.858 127.71 173.858 31.4364 173.858 31.4364H95.2672Z" fill="#CFD8DD"/>
  <path d="M95.2672 62.8727C138.672 62.8727 173.858 48.7982 173.858 31.4364C173.858 14.0745 138.672 0 95.2672 0C51.8626 0 16.6763 14.0745 16.6763 31.4364C16.6763 48.7982 51.8626 62.8727 95.2672 62.8727Z" fill="#CFD8DD"/>
  <path d="M95.2671 227.914C95.2671 227.914 103.782 223.65 95.2671 216.125C95.2671 216.125 101.9 192.021 117.406 185.321C133.91 185.321 146.351 195.251 146.351 208.266C146.351 213.834 130.633 227.914 95.2671 227.914Z" fill="#BEC3CF"/>
  <path d="M153.42 23.5772C151.082 19.2351 144.265 15.7181 138.189 15.7181C132.114 15.7181 129.085 19.2351 131.423 23.5772C133.761 27.9194 140.575 31.4363 146.654 31.4363C152.725 31.4363 155.762 27.9194 153.42 23.5772ZM60.1526 207.417C58.1761 209.453 56.1288 212.16 54.5845 216.388C57.7635 219.162 61.8502 221.681 67.1394 223.65C67.7091 219.52 68.6483 215.378 70.118 211.857C66.6694 210.68 63.334 209.194 60.1526 207.417Z" fill="#E6EBEF"/>
  <path d="M95.2672 62.8727H24.5354C24.5354 110.027 42.2183 179.065 52.0422 200.407C54.8086 206.419 73.5643 216.125 95.2672 216.125C116.97 216.125 135.211 206.156 138.492 200.407C150.135 180.005 165.999 110.027 165.999 62.8727H95.2672Z" fill="white"/>
  <path d="M155.5 144C117.5 126 59.3333 139.5 36.5 148.5L38 155.5H153.5C153.5 154.5 157.5 144.947 155.5 144Z" fill="#EEF0F1"/>
  <path d="M95.2672 86.4501C134.331 86.4501 165.999 75.8942 165.999 62.8728C165.999 49.8514 134.331 39.2955 95.2672 39.2955C56.2031 39.2955 24.5354 49.8514 24.5354 62.8728C24.5354 75.8942 56.2031 86.4501 95.2672 86.4501Z" fill="#E6EBEF"/>
  <path opacity="0.35" d="M95.2672 0C51.8614 0 16.6763 14.0756 16.6763 31.4364C16.6763 48.7971 51.8614 62.8727 95.2672 62.8727C138.673 62.8727 173.858 48.7971 173.858 31.4364C173.858 14.0756 138.673 0 95.2672 0ZM95.2672 55.0136C59.0996 55.0136 24.5354 44.4549 24.5354 31.4364C24.5354 18.4178 48.2502 3.92954 95.2672 3.92954C142.284 3.92954 165.999 18.4178 165.999 31.4364C165.999 44.4549 131.431 55.0136 95.2672 55.0136Z" fill="#6E8189"/>
  <path d="M138.335 209.15C136.614 206.325 135.258 210.816 122.699 215.103C114.054 218.046 107.06 218.848 107.06 221.052C107.06 225.182 116.392 224.746 125.827 221.052C135.301 217.441 139.368 210.847 138.335 209.15Z" fill="#CFD8DD"/>
  <path d="M166.5 65.5L158 54.5C158 60.9 163.667 71.1667 166.5 75.5V65.5Z" fill="#E3E6E8"/>
  <path d="M278.744 141.93C266.086 121.842 266.822 87.5322 233.72 87.5016C200.577 87.4677 203.896 121.842 191.322 141.93C182.142 156.597 163.65 176.545 163.677 198.099C163.769 272.088 306.593 272.088 306.498 198.099C306.474 176.515 288.019 156.635 278.744 141.93Z" fill="#CBD716"/>
  <path d="M243.632 185.541C241.993 179.638 200.898 168.232 179.046 163.928L172.9 173.151L183.143 245.085L237.737 250.378L232.31 235.863C235.773 228.766 246.651 224.058 246.651 221.107C246.651 217.418 245.68 192.919 243.632 185.541Z" fill="#BDC70E"/>
  <path d="M228.863 78.8376C218.818 35.9006 157.182 53.5749 157.182 53.5749C185.363 99.2779 228.863 78.8376 228.863 78.8376Z" fill="#7AB51D"/>
  <path d="M228.863 78.8379C195.049 57.651 157.182 53.5752 157.182 53.5752C185.363 99.2781 228.863 78.8379 228.863 78.8379Z" fill="#529320"/>
  <path d="M158.034 53.5752C199.739 57.0707 240.969 82.3503 237.673 84.2678C233.194 86.8775 215.967 64.8966 158.034 53.5752Z" fill="#92C932"/>
  <path d="M233.472 104.25C242.591 95.5518 240.88 61.7166 232.478 62.8196C221.051 64.3264 241.026 74.1443 233.472 104.25Z" fill="#B47D56"/>
  <path d="M235.077 102.298C239.985 102.2 241.922 98.2868 247.546 99.8581C241.569 99.8581 240.232 105.01 235.077 105.254C229.919 105.006 228.639 99.8581 222.605 99.8581C228.236 98.2868 230.167 102.203 235.077 102.298Z" fill="#9DA60C"/>
  <path d="M233.526 192.031C232.474 180.177 221.676 190.918 198.904 180.923C188.767 176.471 182.896 187.891 189.035 197.878C202.776 220.205 234.606 204.19 233.526 192.031Z" fill="#D9E617"/>
  <path d="M187.209 240.479C227.771 267.191 306.576 253.073 306.504 198.099C306.481 181.015 294.925 165.01 285.501 151.785L285.497 151.782C294.789 165.356 317.826 273.958 187.209 240.479Z" fill="#BDC70E"/>
  <path d="M0 243.949V264.925C0 271.503 5.49743 277.68 23.5694 273.975C41.6375 270.269 87.2044 313.875 108.809 308.932C130.414 303.592 146.124 294.534 222.326 285.492C232.543 284.25 235.678 280.965 235.678 277.68V257.113L0 243.949Z" fill="#AB5C10"/>
  <path d="M0 243.949C0 250.527 5.49743 256.696 23.5694 252.998C41.6374 249.301 87.2044 292.891 108.809 287.956C130.414 282.615 146.124 273.558 222.326 264.508C249.043 261.223 231.368 245.183 208.973 241.068C194.045 238.608 0 202.335 0 243.949Z" fill="#D99025"/>
  <path d="M24.7483 210.225C24.7483 210.225 -5.8904 209.4 3.14362 220.505C3.14362 220.505 -6.67631 229.138 9.81992 237.363C26.3201 245.599 34.5682 223.386 34.5682 223.386L24.7483 210.225ZM38.4938 243.949C38.4938 243.949 37.3149 261.223 42.8202 266.151C48.3137 271.086 65.2068 258.347 66.7826 269.452C68.3505 280.549 76.6025 286.313 85.6365 276.03C95.0635 265.746 96.6353 274.379 98.6001 281.37C100.168 288.368 109.996 297.41 125.702 281.37C141.412 265.337 139.841 290.42 152.018 280.136C164.192 269.868 161.052 292.487 170.086 277.68C177.945 264.508 183.439 277.68 185.015 268.218C187.372 255.867 191.691 258.755 201.126 268.218C210.16 277.68 214.478 269.039 209.37 263.691C204.266 258.351 208.588 247.242 220.369 263.691C232.157 280.14 233.729 257.521 220.369 248.884L38.4938 243.949Z" fill="#92C932"/>
  <path d="M3.92944 252.178L6.67619 255.471C19.2468 251.356 76.2056 236.129 127.27 292.078C127.27 292.078 172.829 244.77 231.757 250.94V246.826C231.76 246.829 109.815 187.764 3.92944 252.178Z" fill="#F9B700"/>
  <path d="M3.92944 252.177C3.92944 252.177 69.5253 224.619 127.274 287.956C127.274 287.956 172.833 240.656 231.76 246.825C210.344 192.853 18.0679 162.485 3.92944 252.177Z" fill="#FFE12C"/>
  <path d="M219.972 223.39C219.972 218.446 222.33 212.281 188.551 211.876C154.765 211.456 124.126 232.435 124.126 232.435L172.047 241.477C203.476 245.599 219.972 232.439 219.972 223.39Z" fill="#E03636"/>
  <path d="M161.048 240.243C161.048 235.308 163.406 229.142 129.628 228.737C95.8454 228.325 18.064 211.054 18.064 211.054C18.064 211.054 18.064 267.388 101.736 259.989C143.373 256.291 161.048 251.356 161.048 240.243Z" fill="#E03636"/>
  <path d="M79.7382 263.275C72.2799 263.275 64.8138 262.045 56.9586 259.168C23.9622 246.829 17.282 220.922 15.7141 210.226L19.6397 209.401C21.2115 221.739 28.6737 243.949 58.1335 255.046C85.6325 265.746 112.738 252.178 132.767 242.711C142.583 237.776 150.442 234.078 156.337 234.078C162.624 234.078 164.978 237.363 164.978 240.24C164.978 245.596 157.512 250.94 144.945 255.467C134.339 259.164 114.699 263.271 81.31 263.271L79.7382 263.275ZM156.337 238.609C151.232 238.609 143.373 242.299 134.339 246.829C126.873 250.527 118.232 254.641 108.805 257.934C125.305 256.292 136.693 253.82 143.762 251.356C157.909 246.829 161.044 241.894 161.044 240.244C161.048 239.422 159.476 238.609 156.337 238.609Z" fill="#F46C60"/>
  <path d="M85.6327 240.656C129.454 240.656 164.978 228.135 164.978 212.689C164.978 197.244 129.454 184.723 85.6327 184.723C41.8115 184.723 6.28735 197.244 6.28735 212.689C6.28735 228.135 41.8115 240.656 85.6327 240.656Z" fill="#F46C60"/>
  <path d="M85.6327 236.549C129.454 236.549 164.978 224.028 164.978 208.583C164.978 193.137 129.454 180.616 85.6327 180.616C41.8115 180.616 6.28735 193.137 6.28735 208.583C6.28735 224.028 41.8115 236.549 85.6327 236.549Z" fill="#E03636"/>
  <path d="M181.081 246.008C174.012 246.008 167.336 244.774 160.266 242.303L161.441 238.196V239.018L161.842 238.196L160.659 241.481L161.842 238.196C162.235 238.196 168.122 240.66 175.187 240.66C181.871 240.66 186.976 238.613 190.512 234.903C198.756 226.27 210.545 216.808 216.828 216.808C219.968 216.808 221.933 218.863 221.933 222.565C221.937 232.015 204.258 246.008 181.081 246.008ZM216.832 221.331C212.51 221.331 201.904 229.139 193.263 238.192C192.088 239.422 190.905 240.656 189.333 241.477C206.226 239.014 218.007 228.738 218.007 222.973C218.007 221.331 217.614 221.331 216.832 221.331Z" fill="#F46C60"/>
  <path opacity="0.3" d="M6.49951 206.516C6.49951 206.516 5.78041 216.395 23.8524 212.689C41.9204 208.988 94.1637 262.614 112.432 249.922C142.187 229.252 189.058 228.27 220.522 218.261C121.773 171.747 6.49951 206.516 6.49951 206.516Z" fill="#1A1626"/>
  <path d="M0 176.498V197.478C0 204.056 5.49743 210.225 23.5694 206.52C41.6375 202.822 87.2044 246.413 108.809 241.477C130.414 236.129 146.124 227.087 222.326 218.037C232.15 216.804 235.678 213.923 235.678 210.63V189.658L0 176.498Z" fill="#AB5C10"/>
  <path d="M0 176.09C0 182.668 5.49743 188.837 23.5694 185.131C41.6374 181.43 87.2044 225.024 108.809 220.1C130.414 214.744 146.124 205.703 222.326 196.649C249.043 193.36 231.368 177.319 208.973 173.205C194.045 170.741 155.948 162.509 152.018 153.043C148.089 143.588 95.4526 141.121 61.6742 148.932C27.495 156.76 0 165.393 0 176.09Z" fill="#FFE8BB"/>
  <path d="M25.0429 166.773C28.9724 166.773 28.9724 172.746 25.0429 172.746C21.1133 172.746 21.1133 166.773 25.0429 166.773ZM55.2532 170.753C60.4913 170.753 60.4913 178.715 55.2532 178.715C50.0112 178.715 50.0112 170.753 55.2532 170.753ZM76.6181 155.491C80.5477 155.491 80.5477 161.464 76.6181 161.464C72.6886 161.464 72.6886 155.491 76.6181 155.491ZM99.3741 167.763C103.304 167.763 103.304 173.74 99.3741 173.74C95.4446 173.74 95.4446 167.763 99.3741 167.763ZM139.239 173.516C143.169 173.516 143.169 179.489 139.239 179.489C135.31 179.489 135.31 173.516 139.239 173.516ZM128.645 155.491C132.575 155.491 132.575 161.464 128.645 161.464C124.716 161.464 124.716 155.491 128.645 155.491ZM215.787 179.638C219.716 179.638 219.716 185.611 215.787 185.611C211.857 185.611 211.857 179.638 215.787 179.638ZM196.63 187.764C200.56 187.764 200.56 193.741 196.63 193.741C192.701 193.741 192.701 187.764 196.63 187.764ZM175.034 175.732C178.963 175.732 178.963 181.701 175.034 181.701C171.104 181.701 171.104 175.732 175.034 175.732ZM121.773 192.853C127.011 192.853 127.011 200.81 121.773 200.81C116.531 200.81 116.531 192.853 121.773 192.853ZM164.978 188.869C170.212 188.869 170.212 196.834 164.978 196.834C159.736 196.834 159.736 188.869 164.978 188.869ZM83.4948 188.869C88.7329 188.869 88.7329 196.834 83.4948 196.834C78.2528 196.834 78.2528 188.869 83.4948 188.869Z" fill="#F5CFA0"/>
</svg>
